# xmcd
#
# Track frame offsets: 
#        150
#        17834
#        32176
#        47499
#        65703
#        81047
#        96399
#        109646
#        125392
#        142830
#        162111
#        174697
#        195714
#        210787
#        227143
#        242665
#        258752
#        279421
#
# Disc length: 3990 seconds
#
# Revision: 3
# Processed by: cddbd v1.5.1PL2 Copyright (c) Steve Scherf et al.
# Submitted via: ExactAudioCopy v0.95b3
#
DISCID=ed0f9412
DTITLE=Instrumental - Tischmusik Vol. 2
DYEAR=1999
DGENRE=Pop
TTITLE0=Walking In Memphis
TTITLE1=Life Is A Flower
TTITLE2=Together Forever
TTITLE3=If You Could Read My Mind
TTITLE4=As Long As You Love Me
TTITLE5=Kiss You All Over
TTITLE6=Men In Black
TTITLE7=Ocean Of Light
TTITLE8=Just The Way It Is
TTITLE9=Don´t Cry For Me Argentina
TTITLE10=Samba De Janeiro
TTITLE11=Nightshift
TTITLE12=Charly
TTITLE13=Happy People
TTITLE14=Stand By Me
TTITLE15=What´s Love Got To Do
TTITLE16=Together Again
TTITLE17=The Way It Is
EXTD=
EXTT0=
EXTT1=
EXTT2=
EXTT3=
EXTT4=
EXTT5=
EXTT6=
EXTT7=
EXTT8=
EXTT9=
EXTT10=
EXTT11=
EXTT12=
EXTT13=
EXTT14=
EXTT15=
EXTT16=
EXTT17=
PLAYORDER=
